<?xml version="1.0"?>
<svg xmlns="http://www.w3.org/2000/svg" width="313.34409mm" height="176.04172mm" viewBox="0 0 313.34409 176.04172">
<g transform="translate(411.41984,27.473395) matrix(0.31523214,0,0,0.31523214,-272.64656,47.014606)">
 <g transform="matrix(1.6233766,0,0,1.6233766,-544.70834,-729.07294)" style="fill:#000;stroke:none">
  <path d="m 205.34935,398.03965 c -49.41644,0 -64.5597,31.18705 -64.5597,48.4375 h 34.09376 c 1.16151,-9.11623 9.64888,-19.59375 31.62219,-19.59375 22.37071,0 31.125,14.06076 31.125,31.84375 h -16.625 c -55.54456,0 -86.875,15.39324 -86.875,49.5625 0,24.39973 24.02635,46.125 55.25,46.125 19.66032,0 40.86019,-9.35927 48.15345,-15.3125 l 0.5,11.375 h 33.03405 v -84 c 0,-42.29747 -16.8851,-68.4375 -65.71875,-68.4375 z m 20.65625,87.3125 h 11.02845 v 8.40625 c 0,17.53782 -16.15296,30.52845 -40.71595,30.52845 -14.99665,0 -26.52845,-4.44975 -26.52845,-14.9972 0,-14.51421 10.41269,-23.9375 56.21595,-23.9375 z" />
  <path d="M 290.44317,550.46433 V 401.2308 h 53.31796 l 27.58414,108.41029 27.61167,-108.41029 h 53.2704 V 550.46433 H 417.45889 V 442.97341 l -30.3398,107.49092 h -32.02566 l -30.0756,-107.26145 v 107.26145 z" />
  <path d="m 576.45009,494.48219 h 33.93316 c -5.0296,28.215 -30.31325,60 -70.07552,60 -50.09612,0 -72.10797,-43.83495 -72.10797,-77.85714 0,-46.11103 28.81112,-78.48215 71.84287,-78.48215 37.8001,0 64.33912,27.73392 69.89878,59.82143 h -33.31459 c -3.88558,-12.34668 -15.83052,-29.01786 -36.58419,-29.01786 -23.38299,0 -39.32359,23.53303 -39.32359,46.96429 0,28.14177 18.97428,47.58929 39.23523,47.58929 18.51998,0 32.06962,-14.5094 36.49582,-29.01786 z" />
  <path d="m 64.361328,303.55078 v 2.5918 341.41406 H 676.67188 V 303.55078 Z m 5.181641,5.1836 H 671.49023 V 642.37305 H 69.542969 Z" />
 </g>
</g>
</svg>